PathFileType	4	(X/Y/Z)	D:/ViconDB/Teaching_2017/Workshops/171025_A1_Demo01/Demo/171025_Guy_ROM_body_01.trc
DataRate	CameraRate	NumFrames	NumMarkers	Units	OrigDataRate	OrigDataStartFrame	OrigNumFrames
120.000000	120.000000	4	130	mm	120.000000	91	120
Frame#	Time	System			Vantage_5_2106396			Vantage_5_2106443			Vantage_5_2106435			Vantage_5_2106735			Vantage_5_2106428			Vantage_5_2106437			Vantage_5_2106434			Vantage_5_2106460			Vantage_5_2106228			Vantage_5_2106436			Vantage_5_2106467			Unlabeled_Markers			Labeling			Hips			Spine			Head			Head_End			LeftShoulder			LeftArm			LeftForeArm			LeftHand			LeftHandThumbEnd			LeftHandEnd			RightShoulder			RightArm			RightForeArm			RightHand			RightHandThumbEnd			RightHandEnd			LeftUpLeg			LeftLeg			LeftFoot			LeftToeBase			LeftToeEnd			RightUpLeg			RightLeg			RightFoot			RightToeBase			RightToeEnd			ARIEL			LFHD			RFHD			LBHD			RBHD			C7			T10			CLAV			STRN			LBSH			LFSH			LUPA			LELB			LIEL			LWRE			LOWR			LIWR			LOHAND			LIHAND			RBSH			RFSH			RUPA			RELB			RIEL			RWRE			ROWR			RIWR			ROHAND			RIHAND			LFWT			LMWT			LBWT			LHIP			LKNE			LKNI			LSHN			LANK			LHEL			LMT5			LMT1			LTOE			RFWT			RMWT			RBWT			RHIP			RKNE			RKNI			RSHN			RANK			RHEL			RMT5			RMT1			RTOE			Solving			Hips			Spine			Spine1			Spine2			Spine3			Neck			Head			HeadEnd			RightShoulder			RightArm			RightForeArm			RightForeArmRoll			RightHand			RightHandEnd			R_FingersEnd			RightHandThumb1			RightHandThumb2			LeftShoulder			LeftArm			LeftForeArm			LeftForeArmRoll			LeftHand			LeftHandEnd			L_FingersEnd			LeftHandThumb1			LeftHandThumb2			RightUpLeg			RightLeg			RightFoot			RightToeBase			RightToeBaseEnd			LeftUpLeg			LeftLeg			LeftFoot			LeftToeBase			LeftToeBaseEnd			
		X0	Y0	Z0	X1	Y1	Z1	X2	Y2	Z2	X3	Y3	Z3	X4	Y4	Z4	X5	Y5	Z5	X6	Y6	Z6	X7	Y7	Z7	X8	Y8	Z8	X9	Y9	Z9	X10	Y10	Z10	X11	Y11	Z11	X12	Y12	Z12	X13	Y13	Z13	X14	Y14	Z14	X15	Y15	Z15	X16	Y16	Z16	X17	Y17	Z17	X18	Y18	Z18	X19	Y19	Z19	X20	Y20	Z20	X21	Y21	Z21	X22	Y22	Z22	X23	Y23	Z23	X24	Y24	Z24	X25	Y25	Z25	X26	Y26	Z26	X27	Y27	Z27	X28	Y28	Z28	X29	Y29	Z29	X30	Y30	Z30	X31	Y31	Z31	X32	Y32	Z32	X33	Y33	Z33	X34	Y34	Z34	X35	Y35	Z35	X36	Y36	Z36	X37	Y37	Z37	X38	Y38	Z38	X39	Y39	Z39	X40	Y40	Z40	X41	Y41	Z41	X42	Y42	Z42	X43	Y43	Z43	X44	Y44	Z44	X45	Y45	Z45	X46	Y46	Z46	X47	Y47	Z47	X48	Y48	Z48	X49	Y49	Z49	X50	Y50	Z50	X51	Y51	Z51	X52	Y52	Z52	X53	Y53	Z53	X54	Y54	Z54	X55	Y55	Z55	X56	Y56	Z56	X57	Y57	Z57	X58	Y58	Z58	X59	Y59	Z59	X60	Y60	Z60	X61	Y61	Z61	X62	Y62	Z62	X63	Y63	Z63	X64	Y64	Z64	X65	Y65	Z65	X66	Y66	Z66	X67	Y67	Z67	X68	Y68	Z68	X69	Y69	Z69	X70	Y70	Z70	X71	Y71	Z71	X72	Y72	Z72	X73	Y73	Z73	X74	Y74	Z74	X75	Y75	Z75	X76	Y76	Z76	X77	Y77	Z77	X78	Y78	Z78	X79	Y79	Z79	X80	Y80	Z80	X81	Y81	Z81	X82	Y82	Z82	X83	Y83	Z83	X84	Y84	Z84	X85	Y85	Z85	X86	Y86	Z86	X87	Y87	Z87	X88	Y88	Z88	X89	Y89	Z89	X90	Y90	Z90	X91	Y91	Z91	X92	Y92	Z92	X93	Y93	Z93	X94	Y94	Z94	X95	Y95	Z95	X96	Y96	Z96	X97	Y97	Z97	X98	Y98	Z98	X99	Y99	Z99	X100	Y100	Z100	X101	Y101	Z101	X102	Y102	Z102	X103	Y103	Z103	X104	Y104	Z104	X105	Y105	Z105	X106	Y106	Z106	X107	Y107	Z107	X108	Y108	Z108	X109	Y109	Z109	X110	Y110	Z110	X111	Y111	Z111	X112	Y112	Z112	X113	Y113	Z113	X114	Y114	Z114	X115	Y115	Z115	X116	Y116	Z116	X117	Y117	Z117	X118	Y118	Z118	X119	Y119	Z119	X120	Y120	Z120	X121	Y121	Z121	X122	Y122	Z122	X123	Y123	Z123	X124	Y124	Z124	X125	Y125	Z125	X126	Y126	Z126	X127	Y127	Z127	X128	Y128	Z128	X129	Y129	Z129	
91	0.758333																																											-6.663666	971.240051	-14.099280																																																																												-36.302517	1843.337646	-14.066535	24.803905	1793.890991	76.790092	-102.369568	1788.505005	57.355625	65.142311	1734.883911	-40.610512	-91.072624	1717.274536	-72.773254	-7.463449	1553.833252	-99.071175	-1.058393	1375.452637	-129.284927	-10.771229	1483.964844	76.087242	-4.033503	1347.302979	118.286011	142.572418	1501.912231	-110.593452	126.717552	1506.772583	29.133375	237.783142	1356.467529	-33.059044	262.942078	1168.583496	-8.824429	237.168427	1221.776611	-67.706268	260.561584	1054.545532	51.699787	263.358246	926.615540	34.701340	210.522507	933.881836	100.243492	276.172577	871.968445	92.073112	256.721375	887.268250	118.370621	-169.563065	1501.422119	-108.385643	-156.590530	1508.524170	9.678319	-257.702271	1361.929810	-50.260418	-292.465332	1167.038574	-52.264275	-239.070496	1207.648682	-106.383865	-301.065216	1047.722412	-12.782750	-284.003540	919.075012	-12.253271	-258.055176	944.244995	61.996906	-304.779297	865.105225	43.276188	-293.920471	871.308105	82.819633	118.374077	1090.004150	89.228134	184.649811	981.662598	-20.466856	117.776733	1171.978638	-96.563881	182.974213	662.713196	-16.442635	175.263626	549.502563	-14.065537	113.771896	629.934448	49.770645	196.031845	332.972717	-93.834801	179.437378	124.418556	-134.978058	129.197403	68.244461	-191.301987	208.040054	79.401299	42.505672	126.838890	85.680176	51.681934	163.565994	83.708786	96.295959	-141.424698	1093.254150	89.733818	-202.381042	1012.022217	-61.408043	-117.266754	1157.899536	-112.740654	-136.365570	753.202698	66.233185	-185.788773	565.931885	-20.998346	-160.979141	650.531799	42.147526	-198.785385	413.071320	-93.554306	-179.067734	127.310005	-146.530151	-116.925217	75.711487	-194.292374	-204.408585	76.929474	27.147871	-124.405350	76.113220	42.909561	-178.027115	79.097137	83.133987				-6.503644	970.882996	-21.186308																																																																																																																																				
92	0.766667																																											-6.625585	971.229309	-14.145411																																																																												-36.410568	1843.324707	-14.117838	24.753397	1793.908325	76.767975	-102.494614	1788.465820	57.259586	65.064606	1734.951050	-40.574791	-91.171074	1717.240967	-72.778641	-7.513481	1553.821045	-99.104523	-1.113064	1375.470215	-129.286346	-10.530746	1484.245850	76.176735	-4.174247	1347.240112	118.162651	142.543732	1501.943115	-110.622856	126.353218	1506.468872	28.915554	237.756256	1356.510254	-33.076565	262.892334	1168.615967	-8.860377	237.101364	1221.805298	-67.766594	260.514648	1054.680664	51.701241	263.326721	926.659607	34.617950	210.400711	933.889771	100.130737	276.091522	872.020203	91.987511	257.227234	887.860718	118.597397	-169.614380	1501.395386	-108.427299	-156.714310	1508.457642	9.564257	-257.824432	1361.763916	-50.416904	-292.555511	1167.033691	-52.347866	-239.136429	1207.628906	-106.445282	-301.162781	1047.697021	-12.876394	-284.156708	919.031860	-12.373374	-257.780945	943.823242	61.711063	-304.932648	865.075012	43.094547	-294.070923	871.249634	82.666679	118.324287	1090.036377	89.205200	184.629288	981.729797	-20.460596	117.735001	1171.999146	-96.579048	182.983124	662.785400	-16.429070	175.232269	549.573792	-14.114782	113.687683	629.923462	49.699940	196.027847	333.047150	-93.858559	179.409714	124.444336	-134.972839	129.132172	68.222801	-191.291580	208.007416	79.400558	42.497292	126.788933	85.663452	51.651146	163.509903	83.705437	96.300980	-141.476471	1093.213867	89.650589	-202.421844	1011.985657	-61.423763	-117.283234	1157.925537	-112.841431	-136.405746	753.211304	66.178886	-185.863281	565.874451	-21.054947	-161.056763	650.495056	42.034710	-198.836975	413.052460	-93.576790	-179.145706	127.276741	-146.486008	-117.024963	75.677948	-194.288666	-204.448349	76.905243	27.128428	-124.454964	76.087105	42.886139	-178.384735	79.255974	82.897827				-6.516847	970.880554	-21.268568																																																																																																																																				
93	0.775000																																											-6.687802	971.190857	-14.214959																																																																												-36.447529	1843.336182	-14.136105	24.741390	1793.944214	76.771263	-102.559662	1788.404541	57.152977	65.023087	1734.985718	-40.548088	-91.206505	1717.237549	-72.832428	-7.564011	1553.804688	-99.153618	-1.090015	1375.525269	-129.324524	-10.845558	1483.967285	75.974869	-4.252502	1347.209961	118.072037	142.568497	1502.012573	-110.646545	126.280655	1506.441772	28.858780	237.749237	1356.557983	-33.096619	262.876648	1168.651367	-8.890046	237.093369	1221.831177	-67.800171	260.497192	1054.718506	51.658432	263.230896	926.671021	34.538990	209.666885	933.186951	99.515808	276.054840	872.037476	91.888359	256.530518	887.234131	118.163239	-169.641968	1501.375000	-108.483307	-156.774796	1508.400024	9.425619	-258.015320	1361.537354	-50.620724	-292.608185	1167.032104	-52.428032	-239.201218	1207.639038	-106.511368	-301.250183	1047.681396	-13.001927	-284.317169	919.002747	-12.518272	-257.834930	943.705811	61.553253	-305.075470	865.024170	42.925850	-294.172302	871.160095	82.481987	118.319862	1090.050415	89.179039	184.625412	981.761292	-20.458231	117.742973	1172.015625	-96.588028	182.986801	662.835754	-16.436127	175.234650	549.635742	-14.123388	113.648117	629.954590	49.634922	196.021973	333.084015	-93.895042	179.420105	124.470604	-134.980530	129.126678	68.207207	-191.249435	208.002075	79.421860	42.513321	126.773643	85.672310	51.667370	163.476715	83.710159	96.284935	-141.484924	1093.159912	89.546112	-202.437698	1011.974121	-61.442520	-117.305374	1157.937134	-112.901794	-136.436035	753.207458	66.127815	-185.834396	565.823120	-21.132076	-161.098099	650.478027	41.948402	-198.849442	413.056671	-93.604279	-179.203110	127.260315	-146.490692	-117.026337	75.678352	-194.286316	-204.486862	76.870560	27.104544	-124.487000	76.060272	42.868137	-178.094955	79.082634	83.139221				-6.481159	970.880005	-21.343870																																																																																																																																				
94	0.783333																																											-6.706478	971.224304	-14.261182																																																																												-36.473965	1843.362427	-14.154902	24.680176	1793.959595	76.739090	-102.611992	1788.409302	57.113785	64.983589	1735.026245	-40.535316	-91.233337	1717.255005	-72.902054	-7.600294	1553.844971	-99.189651	-1.113575	1375.560303	-129.331268	-10.942599	1483.908081	75.868866	-4.290066	1347.179077	117.985687	142.577148	1502.066772	-110.694725	126.324486	1506.483032	28.858727	237.721634	1356.582886	-33.111900	262.867462	1168.691772	-8.895826	237.063782	1221.864990	-67.825951	260.411591	1054.728149	51.617203	263.226990	926.714905	34.498573	209.377670	932.993408	99.207008	276.018341	872.067505	91.841705	257.075928	887.856812	118.436287	-169.666672	1501.416016	-108.561913	-156.787445	1508.362793	9.339556	-258.032013	1361.505371	-50.705986	-292.669037	1167.047607	-52.523769	-239.247025	1207.659302	-106.585991	-301.281250	1047.654297	-13.115531	-284.421906	919.023621	-12.618636	-258.442902	944.061157	61.507473	-305.198029	864.988037	42.759621	-294.241425	871.080383	82.292336	118.340637	1090.079102	89.197884	184.610458	981.820496	-20.454939	117.723824	1172.081299	-96.607437	183.002258	662.891113	-16.445034	175.232574	549.685486	-14.164408	113.640984	629.936707	49.578327	196.041321	333.113342	-93.923668	179.447739	124.541237	-134.939590	129.100433	68.221909	-191.248337	207.994705	79.447128	42.528252	126.766617	85.668770	51.666306	163.480957	83.734322	96.289101	-141.485168	1093.120972	89.459709	-202.473206	1012.040771	-61.478676	-117.320961	1158.024292	-113.021507	-136.415665	753.208252	66.079285	-185.826096	565.821960	-21.169991	-161.090576	650.461426	41.885311	-198.864777	413.051361	-93.627678	-179.232239	127.278786	-146.468185	-116.511009	75.868141	-194.637939	-204.481674	76.869125	27.099302	-124.503883	76.049377	42.859905	-178.085373	79.121933	83.188828				-6.493667	970.934204	-21.421623																																																																																																																																				
